# xmcd
#
# Track frame offsets:
#	150
#	12069
#	25005
#	35082
#	45419
#	58605
#	68003
#	81671
#	93910
#	106100
#	119615
#	132414
#	145013
#	159622
#	178705
#	191288
#	202529
#	217651
#	229589
#	243348
#
# Disc length: 3417 seconds
#
# Revision: 0
# Processed by: cddbd v1.5.2PL0 Copyright (c) Steve Scherf et al.
# Submitted via: audiograbber 1.83.01
#
DISCID=fd0d5714
DTITLE=The Greatest Country Music Recordings Of All Time - Record 25 and 26
DYEAR=1900
DGENRE=
TTITLE0=Statler Brothers - The Class Of '57
TTITLE1=Statler Brothers - I'll Go To My Grave Loving You
TTITLE2=Statler Brothers - Do You Know You Are My Sunshine
TTITLE3=Statler Brothers - The Official Historian on Shirley Jean Berrell
TTITLE4=Statler Brothers - Charlotte's Web
TTITLE5=Dottie West - Country Sunshine
TTITLE6=Dottie West - Last Time I Saw Him
TTITLE7=Dottie West - Rings Of Gold
TTITLE8=Dottie West - You Pick Me Up (And Put Me Down)
TTITLE9=Dottie West - A Lesson In Leavin'
TTITLE10=Don Williams - You're My Best Friend
TTITLE11=Don Williams - Some Broken Hearts Never Mend
TTITLE12=Don Williams - Tulsa Time
TTITLE13=Don Williams - Good Old Boys Like Me
TTITLE14=Dom Williams - She Never Knew Me
TTITLE15=Dave and Sugar - Golden Tears
TTITLE16=John Conlee - Rose Colored Glasses
TTITLE17=Mickey Gilley - That's All That Matters
TTITLE18=Alabama - Tennessee River
TTITLE19=Tanya Tucker - San Antonio Stroll
EXTD=
EXTT0=
EXTT1=
EXTT2=
EXTT3=
EXTT4=
EXTT5=
EXTT6=
EXTT7=
EXTT8=
EXTT9=
EXTT10=
EXTT11=
EXTT12=
EXTT13=
EXTT14=
EXTT15=
EXTT16=
EXTT17=
EXTT18=
EXTT19=
PLAYORDER=
